M48
; DRILL file {KiCad (5.1.4)-1} date 2/9/2020 8:37:30 PM
; FORMAT={-:-/ absolute / inch / decimal}
; #@! TF.CreationDate,2020-02-09T20:37:30+05:30
; #@! TF.GenerationSoftware,Kicad,Pcbnew,(5.1.4)-1
; #@! TF.FileFunction,Plated,1,2,PTH
FMAT,2
INCH
T1C0.0157
T2C0.0315
T3C0.0394
T4C0.0433
%
G90
G05
T1
X4.655Y-3.6
X4.6927Y-3.4777
X4.715Y-3.86
X4.75Y-4.155
X4.88Y-3.085
X4.885Y-4.1
X4.885Y-4.145
X4.915Y-3.255
X4.965Y-3.7
X5.03Y-3.185
X5.21Y-2.445
X5.21Y-2.525
X5.26Y-3.85
X5.31Y-2.435
X5.4Y-3.51
X5.4071Y-3.435
X5.4111Y-3.3858
X5.4227Y-3.4728
X5.46Y-3.5752
X5.475Y-3.39
X5.475Y-3.8311
X5.5Y-2.235
X5.535Y-2.265
X5.545Y-2.925
X5.555Y-2.53
X5.56Y-2.47
X5.59Y-4.245
X5.6323Y-3.255
X5.6323Y-3.31
X5.635Y-3.605
X5.64Y-3.935
X5.6737Y-3.255
X5.6933Y-3.205
X5.7398Y-3.1148
X5.81Y-3.605
X5.81Y-3.665
X5.81Y-3.725
X5.85Y-2.525
X5.875Y-3.605
X5.875Y-3.665
X5.875Y-3.725
X5.905Y-2.52
X5.94Y-3.605
X5.94Y-3.665
X5.94Y-3.725
X6.015Y-3.94
X6.16Y-3.385
X6.2Y-4.2147
X6.255Y-4.15
X6.705Y-2.915
X6.705Y-2.955
X6.725Y-3.68
X6.91Y-2.95
X6.91Y-3.975
X6.995Y-2.735
X7.03Y-2.645
X7.11Y-3.54
X7.13Y-3.4
T2
X5.0929Y-3.6
X5.285Y-3.6
T3
X6.755Y-2.41
X6.755Y-2.51
X6.755Y-2.61
X6.755Y-2.71
X6.755Y-2.81
X6.52Y-3.4
X6.62Y-3.4
X4.725Y-2.05
X4.825Y-2.05
X4.925Y-2.05
X5.025Y-2.05
X5.125Y-2.05
X5.225Y-2.05
X5.325Y-2.05
X5.425Y-2.05
X5.525Y-2.05
X5.625Y-2.05
X5.725Y-2.05
X5.825Y-2.05
X5.925Y-2.05
X6.025Y-2.05
X6.125Y-2.05
X6.225Y-2.05
X6.325Y-2.05
X6.425Y-2.05
X6.525Y-2.05
X6.625Y-2.05
X6.725Y-2.05
X6.825Y-2.05
X6.925Y-2.05
X7.025Y-2.05
X7.125Y-2.05
X6.52Y-3.74
X6.62Y-3.74
X4.725Y-4.45
X4.825Y-4.45
X4.925Y-4.45
X5.025Y-4.45
X5.125Y-4.45
X5.225Y-4.45
X5.325Y-4.45
X5.425Y-4.45
X5.525Y-4.45
X5.625Y-4.45
X5.725Y-4.45
X5.825Y-4.45
X5.925Y-4.45
X6.025Y-4.45
X6.125Y-4.45
X6.225Y-4.45
X6.325Y-4.45
X6.425Y-4.45
X6.525Y-4.45
X6.625Y-4.45
X6.725Y-4.45
X6.825Y-4.45
X6.925Y-4.45
X7.025Y-4.45
X7.125Y-4.45
X7.265Y-2.05
X7.265Y-2.15
X7.265Y-2.25
X7.265Y-2.35
X7.265Y-2.45
X7.265Y-2.55
X7.265Y-2.65
X7.265Y-2.75
X7.265Y-2.85
X7.265Y-2.95
X7.265Y-3.05
X7.265Y-3.15
X7.265Y-3.25
X7.265Y-3.35
X7.265Y-3.45
X7.265Y-3.55
X7.265Y-3.65
X7.265Y-3.75
X7.265Y-3.85
X7.265Y-3.95
X7.265Y-4.05
X7.265Y-4.15
X7.265Y-4.25
X7.265Y-4.35
X7.265Y-4.45
X4.58Y-3.15
X4.58Y-3.25
X4.58Y-3.35
X4.58Y-3.45
X4.58Y-3.55
X4.58Y-3.65
X4.58Y-3.75
X4.58Y-3.85
X4.58Y-3.95
X4.58Y-4.05
X4.58Y-4.15
X4.58Y-4.25
X4.58Y-4.35
X4.58Y-4.45
X6.52Y-3.57
X6.62Y-3.57
X6.52Y-3.91
X6.62Y-3.91
T4
X5.0991Y-4.0078
X5.0991Y-4.185
X5.355Y-4.0078
X5.355Y-4.185
X5.1041Y-2.9378
X5.1041Y-3.115
X5.36Y-2.9378
X5.36Y-3.115
T0
M30
