%TF.GenerationSoftware,KiCad,Pcbnew,(5.1.4)-1*%
%TF.CreationDate,2020-02-09T20:37:11+05:30*%
%TF.ProjectId,stm32breakout,73746d33-3262-4726-9561-6b6f75742e6b,rev?*%
%TF.SameCoordinates,Original*%
%TF.FileFunction,Legend,Top*%
%TF.FilePolarity,Positive*%
%FSLAX46Y46*%
G04 Gerber Fmt 4.6, Leading zero omitted, Abs format (unit mm)*
G04 Created by KiCad (PCBNEW (5.1.4)-1) date 2020-02-09 20:37:11*
%MOMM*%
%LPD*%
G04 APERTURE LIST*
%ADD10C,0.050000*%
%ADD11C,0.120000*%
%ADD12C,0.150000*%
G04 APERTURE END LIST*
D10*
X113919000Y-49022000D02*
X114427000Y-49022000D01*
X113919000Y-115189000D02*
X113919000Y-49022000D01*
X187071000Y-115189000D02*
X113919000Y-115189000D01*
X187071000Y-49022000D02*
X187071000Y-115189000D01*
X114427000Y-49022000D02*
X187071000Y-49022000D01*
D11*
X115002000Y-114360000D02*
X117662000Y-114360000D01*
X115002000Y-81280000D02*
X115002000Y-114360000D01*
X117662000Y-81280000D02*
X117662000Y-114360000D01*
X115002000Y-81280000D02*
X117662000Y-81280000D01*
X115002000Y-80010000D02*
X115002000Y-78680000D01*
X115002000Y-78680000D02*
X116332000Y-78680000D01*
X182305000Y-114360000D02*
X182305000Y-111700000D01*
X121285000Y-114360000D02*
X182305000Y-114360000D01*
X121285000Y-111700000D02*
X182305000Y-111700000D01*
X121285000Y-114360000D02*
X121285000Y-111700000D01*
X120015000Y-114360000D02*
X118685000Y-114360000D01*
X118685000Y-114360000D02*
X118685000Y-113030000D01*
X119940000Y-107951748D02*
X119940000Y-108474252D01*
X121360000Y-107951748D02*
X121360000Y-108474252D01*
X121464000Y-85741252D02*
X121464000Y-85218748D01*
X122884000Y-85741252D02*
X122884000Y-85218748D01*
X125297000Y-85741252D02*
X125297000Y-85218748D01*
X123877000Y-85741252D02*
X123877000Y-85218748D01*
X134007000Y-86846000D02*
X130407000Y-86846000D01*
X134007000Y-82826000D02*
X130407000Y-82826000D01*
X136307000Y-86846000D02*
X136307000Y-82826000D01*
X136307000Y-82826000D02*
X135907000Y-82826000D01*
X128107000Y-86846000D02*
X128107000Y-82826000D01*
X135907000Y-82236000D02*
X135907000Y-82826000D01*
X134007000Y-82826000D02*
X134007000Y-82236000D01*
X136307000Y-86846000D02*
X135907000Y-86846000D01*
X128107000Y-86846000D02*
X128507000Y-86846000D01*
X128107000Y-82826000D02*
X128507000Y-82826000D01*
X183201000Y-114360000D02*
X185861000Y-114360000D01*
X183201000Y-53340000D02*
X183201000Y-114360000D01*
X185861000Y-53340000D02*
X185861000Y-114360000D01*
X183201000Y-53340000D02*
X185861000Y-53340000D01*
X183201000Y-52070000D02*
X183201000Y-50740000D01*
X183201000Y-50740000D02*
X184531000Y-50740000D01*
X155716563Y-105256903D02*
X155347097Y-104887437D01*
X154712471Y-106260995D02*
X154343005Y-105891529D01*
X170051252Y-78307000D02*
X169528748Y-78307000D01*
X170051252Y-76887000D02*
X169528748Y-76887000D01*
X127329000Y-74278748D02*
X127329000Y-74801252D01*
X125909000Y-74278748D02*
X125909000Y-74801252D01*
X125655000Y-102995252D02*
X125655000Y-102472748D01*
X127075000Y-102995252D02*
X127075000Y-102472748D01*
X121591000Y-91568748D02*
X121591000Y-92091252D01*
X123011000Y-91568748D02*
X123011000Y-92091252D01*
X125297000Y-91568748D02*
X125297000Y-92091252D01*
X123877000Y-91568748D02*
X123877000Y-92091252D01*
X136399748Y-98500000D02*
X136922252Y-98500000D01*
X136399748Y-97080000D02*
X136922252Y-97080000D01*
X140029221Y-79692313D02*
X140398687Y-80061779D01*
X141033313Y-78688221D02*
X141402779Y-79057687D01*
X141657000Y-105535252D02*
X141657000Y-105012748D01*
X143077000Y-105535252D02*
X143077000Y-105012748D01*
X121385529Y-79389563D02*
X121754995Y-79020097D01*
X120381437Y-78385471D02*
X120750903Y-78016005D01*
X119305000Y-92091252D02*
X119305000Y-91568748D01*
X120725000Y-92091252D02*
X120725000Y-91568748D01*
X124697748Y-98500000D02*
X125220252Y-98500000D01*
X124697748Y-97080000D02*
X125220252Y-97080000D01*
X156908687Y-103810779D02*
X156539221Y-103441313D01*
X157912779Y-102806687D02*
X157543313Y-102437221D01*
X120180005Y-99287903D02*
X120549471Y-98918437D01*
X121184097Y-100291995D02*
X121553563Y-99922529D01*
X174750252Y-76506000D02*
X174227748Y-76506000D01*
X174750252Y-77926000D02*
X174227748Y-77926000D01*
X126059000Y-69476252D02*
X126059000Y-68953748D01*
X124639000Y-69476252D02*
X124639000Y-68953748D01*
X131751000Y-68699748D02*
X131751000Y-69222252D01*
X133171000Y-68699748D02*
X133171000Y-69222252D01*
X135838000Y-68690748D02*
X135838000Y-69213252D01*
X134418000Y-68690748D02*
X134418000Y-69213252D01*
X131918000Y-58023000D02*
X128018000Y-58023000D01*
X131918000Y-56023000D02*
X128018000Y-56023000D01*
X131918000Y-58023000D02*
X131918000Y-56023000D01*
X132858000Y-60650000D02*
X135718000Y-60650000D01*
X135718000Y-60650000D02*
X135718000Y-58730000D01*
X135718000Y-58730000D02*
X132858000Y-58730000D01*
X149950000Y-67167000D02*
X146050000Y-67167000D01*
X149950000Y-65167000D02*
X146050000Y-65167000D01*
X149950000Y-67167000D02*
X149950000Y-65167000D01*
X141072000Y-68763000D02*
X138212000Y-68763000D01*
X138212000Y-68763000D02*
X138212000Y-70683000D01*
X138212000Y-70683000D02*
X141072000Y-70683000D01*
X176800000Y-100274000D02*
X179660000Y-100274000D01*
X179660000Y-100274000D02*
X179660000Y-98354000D01*
X179660000Y-98354000D02*
X176800000Y-98354000D01*
X179669000Y-94036000D02*
X176809000Y-94036000D01*
X179669000Y-95956000D02*
X179669000Y-94036000D01*
X176809000Y-95956000D02*
X179669000Y-95956000D01*
X176809000Y-91638000D02*
X179669000Y-91638000D01*
X179669000Y-91638000D02*
X179669000Y-89718000D01*
X179669000Y-89718000D02*
X176809000Y-89718000D01*
X179669000Y-85400000D02*
X176809000Y-85400000D01*
X179669000Y-87320000D02*
X179669000Y-85400000D01*
X176809000Y-87320000D02*
X179669000Y-87320000D01*
X135947564Y-57933000D02*
X134743436Y-57933000D01*
X135947564Y-56113000D02*
X134743436Y-56113000D01*
X170247000Y-72704000D02*
X172907000Y-72704000D01*
X170247000Y-62484000D02*
X170247000Y-72704000D01*
X172907000Y-62484000D02*
X172907000Y-72704000D01*
X170247000Y-62484000D02*
X172907000Y-62484000D01*
X170247000Y-61214000D02*
X170247000Y-59884000D01*
X170247000Y-59884000D02*
X171577000Y-59884000D01*
X112962000Y-67410000D02*
X112962000Y-59590000D01*
X122282000Y-61390000D02*
X122712000Y-61390000D01*
X112962000Y-67410000D02*
X114912000Y-67410000D01*
X117132000Y-67410000D02*
X120362000Y-67410000D01*
X122282000Y-65610000D02*
X122282000Y-66690000D01*
X122282000Y-60310000D02*
X122282000Y-61390000D01*
X117132000Y-59590000D02*
X120362000Y-59590000D01*
X112962000Y-59590000D02*
X114912000Y-59590000D01*
X118685000Y-53400000D02*
X118685000Y-52070000D01*
X120015000Y-53400000D02*
X118685000Y-53400000D01*
X121285000Y-53400000D02*
X121285000Y-50740000D01*
X121285000Y-50740000D02*
X182305000Y-50740000D01*
X121285000Y-53400000D02*
X182305000Y-53400000D01*
X182305000Y-53400000D02*
X182305000Y-50740000D01*
X169478000Y-100644000D02*
X169478000Y-97984000D01*
X166878000Y-100644000D02*
X169478000Y-100644000D01*
X166878000Y-97984000D02*
X169478000Y-97984000D01*
X166878000Y-100644000D02*
X166878000Y-97984000D01*
X165608000Y-100644000D02*
X164278000Y-100644000D01*
X164278000Y-100644000D02*
X164278000Y-99314000D01*
X164278000Y-96326000D02*
X164278000Y-94996000D01*
X165608000Y-96326000D02*
X164278000Y-96326000D01*
X166878000Y-96326000D02*
X166878000Y-93666000D01*
X166878000Y-93666000D02*
X169478000Y-93666000D01*
X166878000Y-96326000D02*
X169478000Y-96326000D01*
X169478000Y-96326000D02*
X169478000Y-93666000D01*
X169478000Y-92008000D02*
X169478000Y-89348000D01*
X166878000Y-92008000D02*
X169478000Y-92008000D01*
X166878000Y-89348000D02*
X169478000Y-89348000D01*
X166878000Y-92008000D02*
X166878000Y-89348000D01*
X165608000Y-92008000D02*
X164278000Y-92008000D01*
X164278000Y-92008000D02*
X164278000Y-90678000D01*
X164278000Y-87690000D02*
X164278000Y-86360000D01*
X165608000Y-87690000D02*
X164278000Y-87690000D01*
X166878000Y-87690000D02*
X166878000Y-85030000D01*
X166878000Y-85030000D02*
X169478000Y-85030000D01*
X166878000Y-87690000D02*
X169478000Y-87690000D01*
X169478000Y-87690000D02*
X169478000Y-85030000D01*
X122226000Y-107942748D02*
X122226000Y-108465252D01*
X123646000Y-107942748D02*
X123646000Y-108465252D01*
X125655000Y-107059252D02*
X125655000Y-106536748D01*
X127075000Y-107059252D02*
X127075000Y-106536748D01*
X127329000Y-78874252D02*
X127329000Y-78351748D01*
X125909000Y-78874252D02*
X125909000Y-78351748D01*
X143065687Y-77394779D02*
X142696221Y-77025313D01*
X144069779Y-76390687D02*
X143700313Y-76021221D01*
X127052000Y-68962748D02*
X127052000Y-69485252D01*
X128472000Y-68962748D02*
X128472000Y-69485252D01*
X128779748Y-58980000D02*
X129302252Y-58980000D01*
X128779748Y-60400000D02*
X129302252Y-60400000D01*
X144778252Y-70433000D02*
X144255748Y-70433000D01*
X144778252Y-69013000D02*
X144255748Y-69013000D01*
X172966748Y-98604000D02*
X173489252Y-98604000D01*
X172966748Y-100024000D02*
X173489252Y-100024000D01*
X172975748Y-94286000D02*
X173498252Y-94286000D01*
X172975748Y-95706000D02*
X173498252Y-95706000D01*
X172957748Y-91388000D02*
X173480252Y-91388000D01*
X172957748Y-89968000D02*
X173480252Y-89968000D01*
X172975748Y-85650000D02*
X173498252Y-85650000D01*
X172975748Y-87070000D02*
X173498252Y-87070000D01*
X129267000Y-103299000D02*
X129267000Y-104799000D01*
X130517000Y-107299000D02*
X135017000Y-107299000D01*
X136267000Y-104799000D02*
X136267000Y-103299000D01*
X135017000Y-100799000D02*
X130517000Y-100799000D01*
X129394000Y-76121000D02*
X129394000Y-77621000D01*
X130644000Y-80121000D02*
X135144000Y-80121000D01*
X136394000Y-77621000D02*
X136394000Y-76121000D01*
X135144000Y-73621000D02*
X130644000Y-73621000D01*
X154746000Y-101145000D02*
X155446000Y-101145000D01*
X155446000Y-101145000D02*
X155446000Y-100445000D01*
X141926000Y-101145000D02*
X141226000Y-101145000D01*
X141226000Y-101145000D02*
X141226000Y-100445000D01*
X154746000Y-86925000D02*
X155446000Y-86925000D01*
X155446000Y-86925000D02*
X155446000Y-87625000D01*
X141926000Y-86925000D02*
X141226000Y-86925000D01*
X141226000Y-86925000D02*
X141226000Y-87625000D01*
X141226000Y-87625000D02*
X139861000Y-87625000D01*
X137560000Y-67321000D02*
X137560000Y-61311000D01*
X144380000Y-65071000D02*
X144380000Y-61311000D01*
X137560000Y-61311000D02*
X138820000Y-61311000D01*
X144380000Y-61311000D02*
X143120000Y-61311000D01*
X129832000Y-61519000D02*
X128232000Y-61519000D01*
X128232000Y-64719000D02*
X130532000Y-64719000D01*
X134999000Y-93965000D02*
X128599000Y-93965000D01*
X134999000Y-88915000D02*
X128599000Y-88915000D01*
X134999000Y-88915000D02*
G75*
G02X134999000Y-93965000I0J-2525000D01*
G01*
X128599000Y-88915000D02*
G75*
G03X128599000Y-93965000I0J-2525000D01*
G01*
D12*
X115998666Y-77132380D02*
X115998666Y-77846666D01*
X115951047Y-77989523D01*
X115855809Y-78084761D01*
X115712952Y-78132380D01*
X115617714Y-78132380D01*
X116379619Y-77132380D02*
X116998666Y-77132380D01*
X116665333Y-77513333D01*
X116808190Y-77513333D01*
X116903428Y-77560952D01*
X116951047Y-77608571D01*
X116998666Y-77703809D01*
X116998666Y-77941904D01*
X116951047Y-78037142D01*
X116903428Y-78084761D01*
X116808190Y-78132380D01*
X116522476Y-78132380D01*
X116427238Y-78084761D01*
X116379619Y-78037142D01*
X117137380Y-113363333D02*
X117851666Y-113363333D01*
X117994523Y-113410952D01*
X118089761Y-113506190D01*
X118137380Y-113649047D01*
X118137380Y-113744285D01*
X117470714Y-112458571D02*
X118137380Y-112458571D01*
X117089761Y-112696666D02*
X117804047Y-112934761D01*
X117804047Y-112315714D01*
X120610333Y-105862380D02*
X120277000Y-105386190D01*
X120038904Y-105862380D02*
X120038904Y-104862380D01*
X120419857Y-104862380D01*
X120515095Y-104910000D01*
X120562714Y-104957619D01*
X120610333Y-105052857D01*
X120610333Y-105195714D01*
X120562714Y-105290952D01*
X120515095Y-105338571D01*
X120419857Y-105386190D01*
X120038904Y-105386190D01*
X121467476Y-105195714D02*
X121467476Y-105862380D01*
X121229380Y-104814761D02*
X120991285Y-105529047D01*
X121610333Y-105529047D01*
X120881142Y-86122857D02*
X120928761Y-86170476D01*
X120976380Y-86313333D01*
X120976380Y-86408571D01*
X120928761Y-86551428D01*
X120833523Y-86646666D01*
X120738285Y-86694285D01*
X120547809Y-86741904D01*
X120404952Y-86741904D01*
X120214476Y-86694285D01*
X120119238Y-86646666D01*
X120024000Y-86551428D01*
X119976380Y-86408571D01*
X119976380Y-86313333D01*
X120024000Y-86170476D01*
X120071619Y-86122857D01*
X120976380Y-85170476D02*
X120976380Y-85741904D01*
X120976380Y-85456190D02*
X119976380Y-85456190D01*
X120119238Y-85551428D01*
X120214476Y-85646666D01*
X120262095Y-85741904D01*
X119976380Y-84313333D02*
X119976380Y-84503809D01*
X120024000Y-84599047D01*
X120071619Y-84646666D01*
X120214476Y-84741904D01*
X120404952Y-84789523D01*
X120785904Y-84789523D01*
X120881142Y-84741904D01*
X120928761Y-84694285D01*
X120976380Y-84599047D01*
X120976380Y-84408571D01*
X120928761Y-84313333D01*
X120881142Y-84265714D01*
X120785904Y-84218095D01*
X120547809Y-84218095D01*
X120452571Y-84265714D01*
X120404952Y-84313333D01*
X120357333Y-84408571D01*
X120357333Y-84599047D01*
X120404952Y-84694285D01*
X120452571Y-84741904D01*
X120547809Y-84789523D01*
X126849142Y-86113857D02*
X126896761Y-86161476D01*
X126944380Y-86304333D01*
X126944380Y-86399571D01*
X126896761Y-86542428D01*
X126801523Y-86637666D01*
X126706285Y-86685285D01*
X126515809Y-86732904D01*
X126372952Y-86732904D01*
X126182476Y-86685285D01*
X126087238Y-86637666D01*
X125992000Y-86542428D01*
X125944380Y-86399571D01*
X125944380Y-86304333D01*
X125992000Y-86161476D01*
X126039619Y-86113857D01*
X126944380Y-85161476D02*
X126944380Y-85732904D01*
X126944380Y-85447190D02*
X125944380Y-85447190D01*
X126087238Y-85542428D01*
X126182476Y-85637666D01*
X126230095Y-85732904D01*
X125944380Y-84828142D02*
X125944380Y-84161476D01*
X126944380Y-84590047D01*
X137263190Y-85312190D02*
X137739380Y-85312190D01*
X136739380Y-85645523D02*
X137263190Y-85312190D01*
X136739380Y-84978857D01*
X136834619Y-84693142D02*
X136787000Y-84645523D01*
X136739380Y-84550285D01*
X136739380Y-84312190D01*
X136787000Y-84216952D01*
X136834619Y-84169333D01*
X136929857Y-84121714D01*
X137025095Y-84121714D01*
X137167952Y-84169333D01*
X137739380Y-84740761D01*
X137739380Y-84121714D01*
X184197666Y-49192380D02*
X184197666Y-49906666D01*
X184150047Y-50049523D01*
X184054809Y-50144761D01*
X183911952Y-50192380D01*
X183816714Y-50192380D01*
X185150047Y-49192380D02*
X184673857Y-49192380D01*
X184626238Y-49668571D01*
X184673857Y-49620952D01*
X184769095Y-49573333D01*
X185007190Y-49573333D01*
X185102428Y-49620952D01*
X185150047Y-49668571D01*
X185197666Y-49763809D01*
X185197666Y-50001904D01*
X185150047Y-50097142D01*
X185102428Y-50144761D01*
X185007190Y-50192380D01*
X184769095Y-50192380D01*
X184673857Y-50144761D01*
X184626238Y-50097142D01*
X153492668Y-106875629D02*
X153425325Y-106875629D01*
X153290638Y-106808285D01*
X153223294Y-106740942D01*
X153155951Y-106606254D01*
X153155951Y-106471567D01*
X153189622Y-106370552D01*
X153290638Y-106202193D01*
X153391653Y-106101178D01*
X153560012Y-106000163D01*
X153661027Y-105966491D01*
X153795714Y-105966491D01*
X153930401Y-106033835D01*
X153997745Y-106101178D01*
X154065088Y-106235865D01*
X154065088Y-106303209D01*
X154098760Y-107616407D02*
X153694699Y-107212346D01*
X153896729Y-107414377D02*
X154603836Y-106707270D01*
X154435477Y-106740942D01*
X154300790Y-106740942D01*
X154199775Y-106707270D01*
X169623333Y-79604142D02*
X169575714Y-79651761D01*
X169432857Y-79699380D01*
X169337619Y-79699380D01*
X169194761Y-79651761D01*
X169099523Y-79556523D01*
X169051904Y-79461285D01*
X169004285Y-79270809D01*
X169004285Y-79127952D01*
X169051904Y-78937476D01*
X169099523Y-78842238D01*
X169194761Y-78747000D01*
X169337619Y-78699380D01*
X169432857Y-78699380D01*
X169575714Y-78747000D01*
X169623333Y-78794619D01*
X170004285Y-78794619D02*
X170051904Y-78747000D01*
X170147142Y-78699380D01*
X170385238Y-78699380D01*
X170480476Y-78747000D01*
X170528095Y-78794619D01*
X170575714Y-78889857D01*
X170575714Y-78985095D01*
X170528095Y-79127952D01*
X169956666Y-79699380D01*
X170575714Y-79699380D01*
X128626142Y-74706666D02*
X128673761Y-74754285D01*
X128721380Y-74897142D01*
X128721380Y-74992380D01*
X128673761Y-75135238D01*
X128578523Y-75230476D01*
X128483285Y-75278095D01*
X128292809Y-75325714D01*
X128149952Y-75325714D01*
X127959476Y-75278095D01*
X127864238Y-75230476D01*
X127769000Y-75135238D01*
X127721380Y-74992380D01*
X127721380Y-74897142D01*
X127769000Y-74754285D01*
X127816619Y-74706666D01*
X127721380Y-74373333D02*
X127721380Y-73754285D01*
X128102333Y-74087619D01*
X128102333Y-73944761D01*
X128149952Y-73849523D01*
X128197571Y-73801904D01*
X128292809Y-73754285D01*
X128530904Y-73754285D01*
X128626142Y-73801904D01*
X128673761Y-73849523D01*
X128721380Y-73944761D01*
X128721380Y-74230476D01*
X128673761Y-74325714D01*
X128626142Y-74373333D01*
X125072142Y-102900666D02*
X125119761Y-102948285D01*
X125167380Y-103091142D01*
X125167380Y-103186380D01*
X125119761Y-103329238D01*
X125024523Y-103424476D01*
X124929285Y-103472095D01*
X124738809Y-103519714D01*
X124595952Y-103519714D01*
X124405476Y-103472095D01*
X124310238Y-103424476D01*
X124215000Y-103329238D01*
X124167380Y-103186380D01*
X124167380Y-103091142D01*
X124215000Y-102948285D01*
X124262619Y-102900666D01*
X124500714Y-102043523D02*
X125167380Y-102043523D01*
X124119761Y-102281619D02*
X124834047Y-102519714D01*
X124834047Y-101900666D01*
X122134333Y-94845142D02*
X122086714Y-94892761D01*
X121943857Y-94940380D01*
X121848619Y-94940380D01*
X121705761Y-94892761D01*
X121610523Y-94797523D01*
X121562904Y-94702285D01*
X121515285Y-94511809D01*
X121515285Y-94368952D01*
X121562904Y-94178476D01*
X121610523Y-94083238D01*
X121705761Y-93988000D01*
X121848619Y-93940380D01*
X121943857Y-93940380D01*
X122086714Y-93988000D01*
X122134333Y-94035619D01*
X123039095Y-93940380D02*
X122562904Y-93940380D01*
X122515285Y-94416571D01*
X122562904Y-94368952D01*
X122658142Y-94321333D01*
X122896238Y-94321333D01*
X122991476Y-94368952D01*
X123039095Y-94416571D01*
X123086714Y-94511809D01*
X123086714Y-94749904D01*
X123039095Y-94845142D01*
X122991476Y-94892761D01*
X122896238Y-94940380D01*
X122658142Y-94940380D01*
X122562904Y-94892761D01*
X122515285Y-94845142D01*
X124420333Y-89511142D02*
X124372714Y-89558761D01*
X124229857Y-89606380D01*
X124134619Y-89606380D01*
X123991761Y-89558761D01*
X123896523Y-89463523D01*
X123848904Y-89368285D01*
X123801285Y-89177809D01*
X123801285Y-89034952D01*
X123848904Y-88844476D01*
X123896523Y-88749238D01*
X123991761Y-88654000D01*
X124134619Y-88606380D01*
X124229857Y-88606380D01*
X124372714Y-88654000D01*
X124420333Y-88701619D01*
X125277476Y-88606380D02*
X125087000Y-88606380D01*
X124991761Y-88654000D01*
X124944142Y-88701619D01*
X124848904Y-88844476D01*
X124801285Y-89034952D01*
X124801285Y-89415904D01*
X124848904Y-89511142D01*
X124896523Y-89558761D01*
X124991761Y-89606380D01*
X125182238Y-89606380D01*
X125277476Y-89558761D01*
X125325095Y-89511142D01*
X125372714Y-89415904D01*
X125372714Y-89177809D01*
X125325095Y-89082571D01*
X125277476Y-89034952D01*
X125182238Y-88987333D01*
X124991761Y-88987333D01*
X124896523Y-89034952D01*
X124848904Y-89082571D01*
X124801285Y-89177809D01*
X136494333Y-96497142D02*
X136446714Y-96544761D01*
X136303857Y-96592380D01*
X136208619Y-96592380D01*
X136065761Y-96544761D01*
X135970523Y-96449523D01*
X135922904Y-96354285D01*
X135875285Y-96163809D01*
X135875285Y-96020952D01*
X135922904Y-95830476D01*
X135970523Y-95735238D01*
X136065761Y-95640000D01*
X136208619Y-95592380D01*
X136303857Y-95592380D01*
X136446714Y-95640000D01*
X136494333Y-95687619D01*
X136827666Y-95592380D02*
X137494333Y-95592380D01*
X137065761Y-96592380D01*
X141615610Y-78112687D02*
X141548267Y-78112687D01*
X141413580Y-78045343D01*
X141346236Y-77978000D01*
X141278893Y-77843312D01*
X141278893Y-77708625D01*
X141312564Y-77607610D01*
X141413580Y-77439251D01*
X141514595Y-77338236D01*
X141682954Y-77237221D01*
X141783969Y-77203549D01*
X141918656Y-77203549D01*
X142053343Y-77270893D01*
X142120687Y-77338236D01*
X142188030Y-77472923D01*
X142188030Y-77540267D01*
X142356389Y-78180030D02*
X142322717Y-78079015D01*
X142322717Y-78011671D01*
X142356389Y-77910656D01*
X142390061Y-77876984D01*
X142491076Y-77843312D01*
X142558419Y-77843312D01*
X142659435Y-77876984D01*
X142794122Y-78011671D01*
X142827793Y-78112687D01*
X142827793Y-78180030D01*
X142794122Y-78281045D01*
X142760450Y-78314717D01*
X142659435Y-78348389D01*
X142592091Y-78348389D01*
X142491076Y-78314717D01*
X142356389Y-78180030D01*
X142255374Y-78146358D01*
X142188030Y-78146358D01*
X142087015Y-78180030D01*
X141952328Y-78314717D01*
X141918656Y-78415732D01*
X141918656Y-78483076D01*
X141952328Y-78584091D01*
X142087015Y-78718778D01*
X142188030Y-78752450D01*
X142255374Y-78752450D01*
X142356389Y-78718778D01*
X142491076Y-78584091D01*
X142524748Y-78483076D01*
X142524748Y-78415732D01*
X142491076Y-78314717D01*
X141074142Y-105440666D02*
X141121761Y-105488285D01*
X141169380Y-105631142D01*
X141169380Y-105726380D01*
X141121761Y-105869238D01*
X141026523Y-105964476D01*
X140931285Y-106012095D01*
X140740809Y-106059714D01*
X140597952Y-106059714D01*
X140407476Y-106012095D01*
X140312238Y-105964476D01*
X140217000Y-105869238D01*
X140169380Y-105726380D01*
X140169380Y-105631142D01*
X140217000Y-105488285D01*
X140264619Y-105440666D01*
X141169380Y-104964476D02*
X141169380Y-104774000D01*
X141121761Y-104678761D01*
X141074142Y-104631142D01*
X140931285Y-104535904D01*
X140740809Y-104488285D01*
X140359857Y-104488285D01*
X140264619Y-104535904D01*
X140217000Y-104583523D01*
X140169380Y-104678761D01*
X140169380Y-104869238D01*
X140217000Y-104964476D01*
X140264619Y-105012095D01*
X140359857Y-105059714D01*
X140597952Y-105059714D01*
X140693190Y-105012095D01*
X140740809Y-104964476D01*
X140788428Y-104869238D01*
X140788428Y-104678761D01*
X140740809Y-104583523D01*
X140693190Y-104535904D01*
X140597952Y-104488285D01*
X119699459Y-78243164D02*
X119699459Y-78310508D01*
X119632115Y-78445195D01*
X119564772Y-78512538D01*
X119430085Y-78579882D01*
X119295398Y-78579882D01*
X119194383Y-78546210D01*
X119026024Y-78445195D01*
X118925009Y-78344180D01*
X118823993Y-78175821D01*
X118790322Y-78074806D01*
X118790322Y-77940119D01*
X118857665Y-77805432D01*
X118925009Y-77738088D01*
X119059696Y-77670745D01*
X119127039Y-77670745D01*
X120440238Y-77637073D02*
X120036177Y-78041134D01*
X120238207Y-77839103D02*
X119531100Y-77131996D01*
X119564772Y-77300355D01*
X119564772Y-77435042D01*
X119531100Y-77536058D01*
X120170864Y-76492233D02*
X120238207Y-76424890D01*
X120339222Y-76391218D01*
X120406566Y-76391218D01*
X120507581Y-76424890D01*
X120675940Y-76525905D01*
X120844299Y-76694264D01*
X120945314Y-76862622D01*
X120978986Y-76963638D01*
X120978986Y-77030981D01*
X120945314Y-77131996D01*
X120877970Y-77199340D01*
X120776955Y-77233012D01*
X120709612Y-77233012D01*
X120608596Y-77199340D01*
X120440238Y-77098325D01*
X120271879Y-76929966D01*
X120170864Y-76761607D01*
X120137192Y-76660592D01*
X120137192Y-76593248D01*
X120170864Y-76492233D01*
X119372142Y-89384142D02*
X119324523Y-89431761D01*
X119181666Y-89479380D01*
X119086428Y-89479380D01*
X118943571Y-89431761D01*
X118848333Y-89336523D01*
X118800714Y-89241285D01*
X118753095Y-89050809D01*
X118753095Y-88907952D01*
X118800714Y-88717476D01*
X118848333Y-88622238D01*
X118943571Y-88527000D01*
X119086428Y-88479380D01*
X119181666Y-88479380D01*
X119324523Y-88527000D01*
X119372142Y-88574619D01*
X120324523Y-89479380D02*
X119753095Y-89479380D01*
X120038809Y-89479380D02*
X120038809Y-88479380D01*
X119943571Y-88622238D01*
X119848333Y-88717476D01*
X119753095Y-88765095D01*
X121276904Y-89479380D02*
X120705476Y-89479380D01*
X120991190Y-89479380D02*
X120991190Y-88479380D01*
X120895952Y-88622238D01*
X120800714Y-88717476D01*
X120705476Y-88765095D01*
X124316142Y-96497142D02*
X124268523Y-96544761D01*
X124125666Y-96592380D01*
X124030428Y-96592380D01*
X123887571Y-96544761D01*
X123792333Y-96449523D01*
X123744714Y-96354285D01*
X123697095Y-96163809D01*
X123697095Y-96020952D01*
X123744714Y-95830476D01*
X123792333Y-95735238D01*
X123887571Y-95640000D01*
X124030428Y-95592380D01*
X124125666Y-95592380D01*
X124268523Y-95640000D01*
X124316142Y-95687619D01*
X125268523Y-96592380D02*
X124697095Y-96592380D01*
X124982809Y-96592380D02*
X124982809Y-95592380D01*
X124887571Y-95735238D01*
X124792333Y-95830476D01*
X124697095Y-95878095D01*
X125649476Y-95687619D02*
X125697095Y-95640000D01*
X125792333Y-95592380D01*
X126030428Y-95592380D01*
X126125666Y-95640000D01*
X126173285Y-95687619D01*
X126220904Y-95782857D01*
X126220904Y-95878095D01*
X126173285Y-96020952D01*
X125601857Y-96592380D01*
X126220904Y-96592380D01*
X155352167Y-104088695D02*
X155284823Y-104088695D01*
X155150136Y-104021351D01*
X155082793Y-103954008D01*
X155015449Y-103819321D01*
X155015449Y-103684634D01*
X155049121Y-103583619D01*
X155150136Y-103415260D01*
X155251151Y-103314245D01*
X155419510Y-103213229D01*
X155520525Y-103179558D01*
X155655212Y-103179558D01*
X155789899Y-103246901D01*
X155857243Y-103314245D01*
X155924586Y-103448932D01*
X155924586Y-103516275D01*
X155958258Y-104829474D02*
X155554197Y-104425413D01*
X155756228Y-104627443D02*
X156463335Y-103920336D01*
X156294976Y-103954008D01*
X156160289Y-103954008D01*
X156059274Y-103920336D01*
X156901067Y-104358069D02*
X157338800Y-104795802D01*
X156833724Y-104829474D01*
X156934739Y-104930489D01*
X156968411Y-105031504D01*
X156968411Y-105098848D01*
X156934739Y-105199863D01*
X156766380Y-105368222D01*
X156665365Y-105401893D01*
X156598022Y-105401893D01*
X156497006Y-105368222D01*
X156294976Y-105166191D01*
X156261304Y-105065176D01*
X156261304Y-104997832D01*
X119498027Y-99145596D02*
X119498027Y-99212940D01*
X119430683Y-99347627D01*
X119363340Y-99414970D01*
X119228653Y-99482314D01*
X119093966Y-99482314D01*
X118992951Y-99448642D01*
X118824592Y-99347627D01*
X118723577Y-99246612D01*
X118622561Y-99078253D01*
X118588890Y-98977238D01*
X118588890Y-98842551D01*
X118656233Y-98707864D01*
X118723577Y-98640520D01*
X118858264Y-98573177D01*
X118925607Y-98573177D01*
X120238806Y-98539505D02*
X119834745Y-98943566D01*
X120036775Y-98741535D02*
X119329668Y-98034428D01*
X119363340Y-98202787D01*
X119363340Y-98337474D01*
X119329668Y-98438490D01*
X120373493Y-97462009D02*
X120844897Y-97933413D01*
X119935760Y-97360993D02*
X120272477Y-98034428D01*
X120710210Y-97596696D01*
X173846142Y-79223142D02*
X173798523Y-79270761D01*
X173655666Y-79318380D01*
X173560428Y-79318380D01*
X173417571Y-79270761D01*
X173322333Y-79175523D01*
X173274714Y-79080285D01*
X173227095Y-78889809D01*
X173227095Y-78746952D01*
X173274714Y-78556476D01*
X173322333Y-78461238D01*
X173417571Y-78366000D01*
X173560428Y-78318380D01*
X173655666Y-78318380D01*
X173798523Y-78366000D01*
X173846142Y-78413619D01*
X174798523Y-79318380D02*
X174227095Y-79318380D01*
X174512809Y-79318380D02*
X174512809Y-78318380D01*
X174417571Y-78461238D01*
X174322333Y-78556476D01*
X174227095Y-78604095D01*
X175703285Y-78318380D02*
X175227095Y-78318380D01*
X175179476Y-78794571D01*
X175227095Y-78746952D01*
X175322333Y-78699333D01*
X175560428Y-78699333D01*
X175655666Y-78746952D01*
X175703285Y-78794571D01*
X175750904Y-78889809D01*
X175750904Y-79127904D01*
X175703285Y-79223142D01*
X175655666Y-79270761D01*
X175560428Y-79318380D01*
X175322333Y-79318380D01*
X175227095Y-79270761D01*
X175179476Y-79223142D01*
X124056142Y-69857857D02*
X124103761Y-69905476D01*
X124151380Y-70048333D01*
X124151380Y-70143571D01*
X124103761Y-70286428D01*
X124008523Y-70381666D01*
X123913285Y-70429285D01*
X123722809Y-70476904D01*
X123579952Y-70476904D01*
X123389476Y-70429285D01*
X123294238Y-70381666D01*
X123199000Y-70286428D01*
X123151380Y-70143571D01*
X123151380Y-70048333D01*
X123199000Y-69905476D01*
X123246619Y-69857857D01*
X124151380Y-68905476D02*
X124151380Y-69476904D01*
X124151380Y-69191190D02*
X123151380Y-69191190D01*
X123294238Y-69286428D01*
X123389476Y-69381666D01*
X123437095Y-69476904D01*
X123579952Y-68334047D02*
X123532333Y-68429285D01*
X123484714Y-68476904D01*
X123389476Y-68524523D01*
X123341857Y-68524523D01*
X123246619Y-68476904D01*
X123199000Y-68429285D01*
X123151380Y-68334047D01*
X123151380Y-68143571D01*
X123199000Y-68048333D01*
X123246619Y-68000714D01*
X123341857Y-67953095D01*
X123389476Y-67953095D01*
X123484714Y-68000714D01*
X123532333Y-68048333D01*
X123579952Y-68143571D01*
X123579952Y-68334047D01*
X123627571Y-68429285D01*
X123675190Y-68476904D01*
X123770428Y-68524523D01*
X123960904Y-68524523D01*
X124056142Y-68476904D01*
X124103761Y-68429285D01*
X124151380Y-68334047D01*
X124151380Y-68143571D01*
X124103761Y-68048333D01*
X124056142Y-68000714D01*
X123960904Y-67953095D01*
X123770428Y-67953095D01*
X123675190Y-68000714D01*
X123627571Y-68048333D01*
X123579952Y-68143571D01*
X131691142Y-72112142D02*
X131643523Y-72159761D01*
X131500666Y-72207380D01*
X131405428Y-72207380D01*
X131262571Y-72159761D01*
X131167333Y-72064523D01*
X131119714Y-71969285D01*
X131072095Y-71778809D01*
X131072095Y-71635952D01*
X131119714Y-71445476D01*
X131167333Y-71350238D01*
X131262571Y-71255000D01*
X131405428Y-71207380D01*
X131500666Y-71207380D01*
X131643523Y-71255000D01*
X131691142Y-71302619D01*
X132643523Y-72207380D02*
X132072095Y-72207380D01*
X132357809Y-72207380D02*
X132357809Y-71207380D01*
X132262571Y-71350238D01*
X132167333Y-71445476D01*
X132072095Y-71493095D01*
X133119714Y-72207380D02*
X133310190Y-72207380D01*
X133405428Y-72159761D01*
X133453047Y-72112142D01*
X133548285Y-71969285D01*
X133595904Y-71778809D01*
X133595904Y-71397857D01*
X133548285Y-71302619D01*
X133500666Y-71255000D01*
X133405428Y-71207380D01*
X133214952Y-71207380D01*
X133119714Y-71255000D01*
X133072095Y-71302619D01*
X133024476Y-71397857D01*
X133024476Y-71635952D01*
X133072095Y-71731190D01*
X133119714Y-71778809D01*
X133214952Y-71826428D01*
X133405428Y-71826428D01*
X133500666Y-71778809D01*
X133548285Y-71731190D01*
X133595904Y-71635952D01*
X134866142Y-72112142D02*
X134818523Y-72159761D01*
X134675666Y-72207380D01*
X134580428Y-72207380D01*
X134437571Y-72159761D01*
X134342333Y-72064523D01*
X134294714Y-71969285D01*
X134247095Y-71778809D01*
X134247095Y-71635952D01*
X134294714Y-71445476D01*
X134342333Y-71350238D01*
X134437571Y-71255000D01*
X134580428Y-71207380D01*
X134675666Y-71207380D01*
X134818523Y-71255000D01*
X134866142Y-71302619D01*
X135247095Y-71302619D02*
X135294714Y-71255000D01*
X135389952Y-71207380D01*
X135628047Y-71207380D01*
X135723285Y-71255000D01*
X135770904Y-71302619D01*
X135818523Y-71397857D01*
X135818523Y-71493095D01*
X135770904Y-71635952D01*
X135199476Y-72207380D01*
X135818523Y-72207380D01*
X136437571Y-71207380D02*
X136532809Y-71207380D01*
X136628047Y-71255000D01*
X136675666Y-71302619D01*
X136723285Y-71397857D01*
X136770904Y-71588333D01*
X136770904Y-71826428D01*
X136723285Y-72016904D01*
X136675666Y-72112142D01*
X136628047Y-72159761D01*
X136532809Y-72207380D01*
X136437571Y-72207380D01*
X136342333Y-72159761D01*
X136294714Y-72112142D01*
X136247095Y-72016904D01*
X136199476Y-71826428D01*
X136199476Y-71588333D01*
X136247095Y-71397857D01*
X136294714Y-71302619D01*
X136342333Y-71255000D01*
X136437571Y-71207380D01*
X124991904Y-57475380D02*
X124991904Y-56475380D01*
X125230000Y-56475380D01*
X125372857Y-56523000D01*
X125468095Y-56618238D01*
X125515714Y-56713476D01*
X125563333Y-56903952D01*
X125563333Y-57046809D01*
X125515714Y-57237285D01*
X125468095Y-57332523D01*
X125372857Y-57427761D01*
X125230000Y-57475380D01*
X124991904Y-57475380D01*
X126515714Y-57475380D02*
X125944285Y-57475380D01*
X126230000Y-57475380D02*
X126230000Y-56475380D01*
X126134761Y-56618238D01*
X126039523Y-56713476D01*
X125944285Y-56761095D01*
X133119904Y-61792380D02*
X133119904Y-60792380D01*
X133358000Y-60792380D01*
X133500857Y-60840000D01*
X133596095Y-60935238D01*
X133643714Y-61030476D01*
X133691333Y-61220952D01*
X133691333Y-61363809D01*
X133643714Y-61554285D01*
X133596095Y-61649523D01*
X133500857Y-61744761D01*
X133358000Y-61792380D01*
X133119904Y-61792380D01*
X134072285Y-60887619D02*
X134119904Y-60840000D01*
X134215142Y-60792380D01*
X134453238Y-60792380D01*
X134548476Y-60840000D01*
X134596095Y-60887619D01*
X134643714Y-60982857D01*
X134643714Y-61078095D01*
X134596095Y-61220952D01*
X134024666Y-61792380D01*
X134643714Y-61792380D01*
X146961904Y-64587380D02*
X146961904Y-63587380D01*
X147200000Y-63587380D01*
X147342857Y-63635000D01*
X147438095Y-63730238D01*
X147485714Y-63825476D01*
X147533333Y-64015952D01*
X147533333Y-64158809D01*
X147485714Y-64349285D01*
X147438095Y-64444523D01*
X147342857Y-64539761D01*
X147200000Y-64587380D01*
X146961904Y-64587380D01*
X147866666Y-63587380D02*
X148485714Y-63587380D01*
X148152380Y-63968333D01*
X148295238Y-63968333D01*
X148390476Y-64015952D01*
X148438095Y-64063571D01*
X148485714Y-64158809D01*
X148485714Y-64396904D01*
X148438095Y-64492142D01*
X148390476Y-64539761D01*
X148295238Y-64587380D01*
X148009523Y-64587380D01*
X147914285Y-64539761D01*
X147866666Y-64492142D01*
X139333904Y-68525380D02*
X139333904Y-67525380D01*
X139572000Y-67525380D01*
X139714857Y-67573000D01*
X139810095Y-67668238D01*
X139857714Y-67763476D01*
X139905333Y-67953952D01*
X139905333Y-68096809D01*
X139857714Y-68287285D01*
X139810095Y-68382523D01*
X139714857Y-68477761D01*
X139572000Y-68525380D01*
X139333904Y-68525380D01*
X140762476Y-67858714D02*
X140762476Y-68525380D01*
X140524380Y-67477761D02*
X140286285Y-68192047D01*
X140905333Y-68192047D01*
X177061904Y-101416380D02*
X177061904Y-100416380D01*
X177300000Y-100416380D01*
X177442857Y-100464000D01*
X177538095Y-100559238D01*
X177585714Y-100654476D01*
X177633333Y-100844952D01*
X177633333Y-100987809D01*
X177585714Y-101178285D01*
X177538095Y-101273523D01*
X177442857Y-101368761D01*
X177300000Y-101416380D01*
X177061904Y-101416380D01*
X178538095Y-100416380D02*
X178061904Y-100416380D01*
X178014285Y-100892571D01*
X178061904Y-100844952D01*
X178157142Y-100797333D01*
X178395238Y-100797333D01*
X178490476Y-100844952D01*
X178538095Y-100892571D01*
X178585714Y-100987809D01*
X178585714Y-101225904D01*
X178538095Y-101321142D01*
X178490476Y-101368761D01*
X178395238Y-101416380D01*
X178157142Y-101416380D01*
X178061904Y-101368761D01*
X178014285Y-101321142D01*
X177070904Y-97098380D02*
X177070904Y-96098380D01*
X177309000Y-96098380D01*
X177451857Y-96146000D01*
X177547095Y-96241238D01*
X177594714Y-96336476D01*
X177642333Y-96526952D01*
X177642333Y-96669809D01*
X177594714Y-96860285D01*
X177547095Y-96955523D01*
X177451857Y-97050761D01*
X177309000Y-97098380D01*
X177070904Y-97098380D01*
X178499476Y-96098380D02*
X178309000Y-96098380D01*
X178213761Y-96146000D01*
X178166142Y-96193619D01*
X178070904Y-96336476D01*
X178023285Y-96526952D01*
X178023285Y-96907904D01*
X178070904Y-97003142D01*
X178118523Y-97050761D01*
X178213761Y-97098380D01*
X178404238Y-97098380D01*
X178499476Y-97050761D01*
X178547095Y-97003142D01*
X178594714Y-96907904D01*
X178594714Y-96669809D01*
X178547095Y-96574571D01*
X178499476Y-96526952D01*
X178404238Y-96479333D01*
X178213761Y-96479333D01*
X178118523Y-96526952D01*
X178070904Y-96574571D01*
X178023285Y-96669809D01*
X177070904Y-92780380D02*
X177070904Y-91780380D01*
X177309000Y-91780380D01*
X177451857Y-91828000D01*
X177547095Y-91923238D01*
X177594714Y-92018476D01*
X177642333Y-92208952D01*
X177642333Y-92351809D01*
X177594714Y-92542285D01*
X177547095Y-92637523D01*
X177451857Y-92732761D01*
X177309000Y-92780380D01*
X177070904Y-92780380D01*
X177975666Y-91780380D02*
X178642333Y-91780380D01*
X178213761Y-92780380D01*
X177070904Y-88462380D02*
X177070904Y-87462380D01*
X177309000Y-87462380D01*
X177451857Y-87510000D01*
X177547095Y-87605238D01*
X177594714Y-87700476D01*
X177642333Y-87890952D01*
X177642333Y-88033809D01*
X177594714Y-88224285D01*
X177547095Y-88319523D01*
X177451857Y-88414761D01*
X177309000Y-88462380D01*
X177070904Y-88462380D01*
X178213761Y-87890952D02*
X178118523Y-87843333D01*
X178070904Y-87795714D01*
X178023285Y-87700476D01*
X178023285Y-87652857D01*
X178070904Y-87557619D01*
X178118523Y-87510000D01*
X178213761Y-87462380D01*
X178404238Y-87462380D01*
X178499476Y-87510000D01*
X178547095Y-87557619D01*
X178594714Y-87652857D01*
X178594714Y-87700476D01*
X178547095Y-87795714D01*
X178499476Y-87843333D01*
X178404238Y-87890952D01*
X178213761Y-87890952D01*
X178118523Y-87938571D01*
X178070904Y-87986190D01*
X178023285Y-88081428D01*
X178023285Y-88271904D01*
X178070904Y-88367142D01*
X178118523Y-88414761D01*
X178213761Y-88462380D01*
X178404238Y-88462380D01*
X178499476Y-88414761D01*
X178547095Y-88367142D01*
X178594714Y-88271904D01*
X178594714Y-88081428D01*
X178547095Y-87986190D01*
X178499476Y-87938571D01*
X178404238Y-87890952D01*
X138604666Y-56951571D02*
X138271333Y-56951571D01*
X138271333Y-57475380D02*
X138271333Y-56475380D01*
X138747523Y-56475380D01*
X139652285Y-57475380D02*
X139080857Y-57475380D01*
X139366571Y-57475380D02*
X139366571Y-56475380D01*
X139271333Y-56618238D01*
X139176095Y-56713476D01*
X139080857Y-56761095D01*
X171243666Y-58336380D02*
X171243666Y-59050666D01*
X171196047Y-59193523D01*
X171100809Y-59288761D01*
X170957952Y-59336380D01*
X170862714Y-59336380D01*
X172243666Y-59336380D02*
X171672238Y-59336380D01*
X171957952Y-59336380D02*
X171957952Y-58336380D01*
X171862714Y-58479238D01*
X171767476Y-58574476D01*
X171672238Y-58622095D01*
X123324380Y-63833333D02*
X124038666Y-63833333D01*
X124181523Y-63880952D01*
X124276761Y-63976190D01*
X124324380Y-64119047D01*
X124324380Y-64214285D01*
X123419619Y-63404761D02*
X123372000Y-63357142D01*
X123324380Y-63261904D01*
X123324380Y-63023809D01*
X123372000Y-62928571D01*
X123419619Y-62880952D01*
X123514857Y-62833333D01*
X123610095Y-62833333D01*
X123752952Y-62880952D01*
X124324380Y-63452380D01*
X124324380Y-62833333D01*
X117137380Y-52403333D02*
X117851666Y-52403333D01*
X117994523Y-52450952D01*
X118089761Y-52546190D01*
X118137380Y-52689047D01*
X118137380Y-52784285D01*
X117137380Y-51498571D02*
X117137380Y-51689047D01*
X117185000Y-51784285D01*
X117232619Y-51831904D01*
X117375476Y-51927142D01*
X117565952Y-51974761D01*
X117946904Y-51974761D01*
X118042142Y-51927142D01*
X118089761Y-51879523D01*
X118137380Y-51784285D01*
X118137380Y-51593809D01*
X118089761Y-51498571D01*
X118042142Y-51450952D01*
X117946904Y-51403333D01*
X117708809Y-51403333D01*
X117613571Y-51450952D01*
X117565952Y-51498571D01*
X117518333Y-51593809D01*
X117518333Y-51784285D01*
X117565952Y-51879523D01*
X117613571Y-51927142D01*
X117708809Y-51974761D01*
X162730380Y-100147333D02*
X163444666Y-100147333D01*
X163587523Y-100194952D01*
X163682761Y-100290190D01*
X163730380Y-100433047D01*
X163730380Y-100528285D01*
X163730380Y-99671142D02*
X162730380Y-99671142D01*
X162730380Y-99290190D01*
X162778000Y-99194952D01*
X162825619Y-99147333D01*
X162920857Y-99099714D01*
X163063714Y-99099714D01*
X163158952Y-99147333D01*
X163206571Y-99194952D01*
X163254190Y-99290190D01*
X163254190Y-99671142D01*
X163730380Y-98147333D02*
X163730380Y-98718761D01*
X163730380Y-98433047D02*
X162730380Y-98433047D01*
X162873238Y-98528285D01*
X162968476Y-98623523D01*
X163016095Y-98718761D01*
X162730380Y-95829333D02*
X163444666Y-95829333D01*
X163587523Y-95876952D01*
X163682761Y-95972190D01*
X163730380Y-96115047D01*
X163730380Y-96210285D01*
X163730380Y-95353142D02*
X162730380Y-95353142D01*
X162730380Y-94972190D01*
X162778000Y-94876952D01*
X162825619Y-94829333D01*
X162920857Y-94781714D01*
X163063714Y-94781714D01*
X163158952Y-94829333D01*
X163206571Y-94876952D01*
X163254190Y-94972190D01*
X163254190Y-95353142D01*
X162825619Y-94400761D02*
X162778000Y-94353142D01*
X162730380Y-94257904D01*
X162730380Y-94019809D01*
X162778000Y-93924571D01*
X162825619Y-93876952D01*
X162920857Y-93829333D01*
X163016095Y-93829333D01*
X163158952Y-93876952D01*
X163730380Y-94448380D01*
X163730380Y-93829333D01*
X162730380Y-91511333D02*
X163444666Y-91511333D01*
X163587523Y-91558952D01*
X163682761Y-91654190D01*
X163730380Y-91797047D01*
X163730380Y-91892285D01*
X163730380Y-91035142D02*
X162730380Y-91035142D01*
X162730380Y-90654190D01*
X162778000Y-90558952D01*
X162825619Y-90511333D01*
X162920857Y-90463714D01*
X163063714Y-90463714D01*
X163158952Y-90511333D01*
X163206571Y-90558952D01*
X163254190Y-90654190D01*
X163254190Y-91035142D01*
X162730380Y-90130380D02*
X162730380Y-89511333D01*
X163111333Y-89844666D01*
X163111333Y-89701809D01*
X163158952Y-89606571D01*
X163206571Y-89558952D01*
X163301809Y-89511333D01*
X163539904Y-89511333D01*
X163635142Y-89558952D01*
X163682761Y-89606571D01*
X163730380Y-89701809D01*
X163730380Y-89987523D01*
X163682761Y-90082761D01*
X163635142Y-90130380D01*
X162730380Y-87193333D02*
X163444666Y-87193333D01*
X163587523Y-87240952D01*
X163682761Y-87336190D01*
X163730380Y-87479047D01*
X163730380Y-87574285D01*
X163730380Y-86717142D02*
X162730380Y-86717142D01*
X162730380Y-86336190D01*
X162778000Y-86240952D01*
X162825619Y-86193333D01*
X162920857Y-86145714D01*
X163063714Y-86145714D01*
X163158952Y-86193333D01*
X163206571Y-86240952D01*
X163254190Y-86336190D01*
X163254190Y-86717142D01*
X163063714Y-85288571D02*
X163730380Y-85288571D01*
X162682761Y-85526666D02*
X163397047Y-85764761D01*
X163397047Y-85145714D01*
X122769333Y-105735380D02*
X122436000Y-105259190D01*
X122197904Y-105735380D02*
X122197904Y-104735380D01*
X122578857Y-104735380D01*
X122674095Y-104783000D01*
X122721714Y-104830619D01*
X122769333Y-104925857D01*
X122769333Y-105068714D01*
X122721714Y-105163952D01*
X122674095Y-105211571D01*
X122578857Y-105259190D01*
X122197904Y-105259190D01*
X123721714Y-105735380D02*
X123150285Y-105735380D01*
X123436000Y-105735380D02*
X123436000Y-104735380D01*
X123340761Y-104878238D01*
X123245523Y-104973476D01*
X123150285Y-105021095D01*
X125167380Y-106964666D02*
X124691190Y-107298000D01*
X125167380Y-107536095D02*
X124167380Y-107536095D01*
X124167380Y-107155142D01*
X124215000Y-107059904D01*
X124262619Y-107012285D01*
X124357857Y-106964666D01*
X124500714Y-106964666D01*
X124595952Y-107012285D01*
X124643571Y-107059904D01*
X124691190Y-107155142D01*
X124691190Y-107536095D01*
X124262619Y-106583714D02*
X124215000Y-106536095D01*
X124167380Y-106440857D01*
X124167380Y-106202761D01*
X124215000Y-106107523D01*
X124262619Y-106059904D01*
X124357857Y-106012285D01*
X124453095Y-106012285D01*
X124595952Y-106059904D01*
X125167380Y-106631333D01*
X125167380Y-106012285D01*
X125421380Y-78779666D02*
X124945190Y-79113000D01*
X125421380Y-79351095D02*
X124421380Y-79351095D01*
X124421380Y-78970142D01*
X124469000Y-78874904D01*
X124516619Y-78827285D01*
X124611857Y-78779666D01*
X124754714Y-78779666D01*
X124849952Y-78827285D01*
X124897571Y-78874904D01*
X124945190Y-78970142D01*
X124945190Y-79351095D01*
X124421380Y-78446333D02*
X124421380Y-77827285D01*
X124802333Y-78160619D01*
X124802333Y-78017761D01*
X124849952Y-77922523D01*
X124897571Y-77874904D01*
X124992809Y-77827285D01*
X125230904Y-77827285D01*
X125326142Y-77874904D01*
X125373761Y-77922523D01*
X125421380Y-78017761D01*
X125421380Y-78303476D01*
X125373761Y-78398714D01*
X125326142Y-78446333D01*
X144088267Y-75513030D02*
X144189282Y-74940610D01*
X143684206Y-75108969D02*
X144391312Y-74401862D01*
X144660687Y-74671236D01*
X144694358Y-74772251D01*
X144694358Y-74839595D01*
X144660687Y-74940610D01*
X144559671Y-75041625D01*
X144458656Y-75075297D01*
X144391312Y-75075297D01*
X144290297Y-75041625D01*
X144020923Y-74772251D01*
X145435137Y-75445687D02*
X145098419Y-75108969D01*
X144728030Y-75412015D01*
X144795374Y-75412015D01*
X144896389Y-75445687D01*
X145064748Y-75614045D01*
X145098419Y-75715061D01*
X145098419Y-75782404D01*
X145064748Y-75883419D01*
X144896389Y-76051778D01*
X144795374Y-76085450D01*
X144728030Y-76085450D01*
X144627015Y-76051778D01*
X144458656Y-75883419D01*
X144424984Y-75782404D01*
X144424984Y-75715061D01*
X129864380Y-69390666D02*
X129388190Y-69724000D01*
X129864380Y-69962095D02*
X128864380Y-69962095D01*
X128864380Y-69581142D01*
X128912000Y-69485904D01*
X128959619Y-69438285D01*
X129054857Y-69390666D01*
X129197714Y-69390666D01*
X129292952Y-69438285D01*
X129340571Y-69485904D01*
X129388190Y-69581142D01*
X129388190Y-69962095D01*
X128864380Y-68533523D02*
X128864380Y-68724000D01*
X128912000Y-68819238D01*
X128959619Y-68866857D01*
X129102476Y-68962095D01*
X129292952Y-69009714D01*
X129673904Y-69009714D01*
X129769142Y-68962095D01*
X129816761Y-68914476D01*
X129864380Y-68819238D01*
X129864380Y-68628761D01*
X129816761Y-68533523D01*
X129769142Y-68485904D01*
X129673904Y-68438285D01*
X129435809Y-68438285D01*
X129340571Y-68485904D01*
X129292952Y-68533523D01*
X129245333Y-68628761D01*
X129245333Y-68819238D01*
X129292952Y-68914476D01*
X129340571Y-68962095D01*
X129435809Y-69009714D01*
X125563333Y-60015380D02*
X125230000Y-59539190D01*
X124991904Y-60015380D02*
X124991904Y-59015380D01*
X125372857Y-59015380D01*
X125468095Y-59063000D01*
X125515714Y-59110619D01*
X125563333Y-59205857D01*
X125563333Y-59348714D01*
X125515714Y-59443952D01*
X125468095Y-59491571D01*
X125372857Y-59539190D01*
X124991904Y-59539190D01*
X125896666Y-59015380D02*
X126563333Y-59015380D01*
X126134761Y-60015380D01*
X144350333Y-71825380D02*
X144017000Y-71349190D01*
X143778904Y-71825380D02*
X143778904Y-70825380D01*
X144159857Y-70825380D01*
X144255095Y-70873000D01*
X144302714Y-70920619D01*
X144350333Y-71015857D01*
X144350333Y-71158714D01*
X144302714Y-71253952D01*
X144255095Y-71301571D01*
X144159857Y-71349190D01*
X143778904Y-71349190D01*
X144921761Y-71253952D02*
X144826523Y-71206333D01*
X144778904Y-71158714D01*
X144731285Y-71063476D01*
X144731285Y-71015857D01*
X144778904Y-70920619D01*
X144826523Y-70873000D01*
X144921761Y-70825380D01*
X145112238Y-70825380D01*
X145207476Y-70873000D01*
X145255095Y-70920619D01*
X145302714Y-71015857D01*
X145302714Y-71063476D01*
X145255095Y-71158714D01*
X145207476Y-71206333D01*
X145112238Y-71253952D01*
X144921761Y-71253952D01*
X144826523Y-71301571D01*
X144778904Y-71349190D01*
X144731285Y-71444428D01*
X144731285Y-71634904D01*
X144778904Y-71730142D01*
X144826523Y-71777761D01*
X144921761Y-71825380D01*
X145112238Y-71825380D01*
X145207476Y-71777761D01*
X145255095Y-71730142D01*
X145302714Y-71634904D01*
X145302714Y-71444428D01*
X145255095Y-71349190D01*
X145207476Y-71301571D01*
X145112238Y-71253952D01*
X173061333Y-98116380D02*
X172728000Y-97640190D01*
X172489904Y-98116380D02*
X172489904Y-97116380D01*
X172870857Y-97116380D01*
X172966095Y-97164000D01*
X173013714Y-97211619D01*
X173061333Y-97306857D01*
X173061333Y-97449714D01*
X173013714Y-97544952D01*
X172966095Y-97592571D01*
X172870857Y-97640190D01*
X172489904Y-97640190D01*
X173537523Y-98116380D02*
X173728000Y-98116380D01*
X173823238Y-98068761D01*
X173870857Y-98021142D01*
X173966095Y-97878285D01*
X174013714Y-97687809D01*
X174013714Y-97306857D01*
X173966095Y-97211619D01*
X173918476Y-97164000D01*
X173823238Y-97116380D01*
X173632761Y-97116380D01*
X173537523Y-97164000D01*
X173489904Y-97211619D01*
X173442285Y-97306857D01*
X173442285Y-97544952D01*
X173489904Y-97640190D01*
X173537523Y-97687809D01*
X173632761Y-97735428D01*
X173823238Y-97735428D01*
X173918476Y-97687809D01*
X173966095Y-97640190D01*
X174013714Y-97544952D01*
X172594142Y-93798380D02*
X172260809Y-93322190D01*
X172022714Y-93798380D02*
X172022714Y-92798380D01*
X172403666Y-92798380D01*
X172498904Y-92846000D01*
X172546523Y-92893619D01*
X172594142Y-92988857D01*
X172594142Y-93131714D01*
X172546523Y-93226952D01*
X172498904Y-93274571D01*
X172403666Y-93322190D01*
X172022714Y-93322190D01*
X173546523Y-93798380D02*
X172975095Y-93798380D01*
X173260809Y-93798380D02*
X173260809Y-92798380D01*
X173165571Y-92941238D01*
X173070333Y-93036476D01*
X172975095Y-93084095D01*
X174165571Y-92798380D02*
X174260809Y-92798380D01*
X174356047Y-92846000D01*
X174403666Y-92893619D01*
X174451285Y-92988857D01*
X174498904Y-93179333D01*
X174498904Y-93417428D01*
X174451285Y-93607904D01*
X174403666Y-93703142D01*
X174356047Y-93750761D01*
X174260809Y-93798380D01*
X174165571Y-93798380D01*
X174070333Y-93750761D01*
X174022714Y-93703142D01*
X173975095Y-93607904D01*
X173927476Y-93417428D01*
X173927476Y-93179333D01*
X173975095Y-92988857D01*
X174022714Y-92893619D01*
X174070333Y-92846000D01*
X174165571Y-92798380D01*
X172576142Y-89480380D02*
X172242809Y-89004190D01*
X172004714Y-89480380D02*
X172004714Y-88480380D01*
X172385666Y-88480380D01*
X172480904Y-88528000D01*
X172528523Y-88575619D01*
X172576142Y-88670857D01*
X172576142Y-88813714D01*
X172528523Y-88908952D01*
X172480904Y-88956571D01*
X172385666Y-89004190D01*
X172004714Y-89004190D01*
X173528523Y-89480380D02*
X172957095Y-89480380D01*
X173242809Y-89480380D02*
X173242809Y-88480380D01*
X173147571Y-88623238D01*
X173052333Y-88718476D01*
X172957095Y-88766095D01*
X174480904Y-89480380D02*
X173909476Y-89480380D01*
X174195190Y-89480380D02*
X174195190Y-88480380D01*
X174099952Y-88623238D01*
X174004714Y-88718476D01*
X173909476Y-88766095D01*
X172594142Y-85162380D02*
X172260809Y-84686190D01*
X172022714Y-85162380D02*
X172022714Y-84162380D01*
X172403666Y-84162380D01*
X172498904Y-84210000D01*
X172546523Y-84257619D01*
X172594142Y-84352857D01*
X172594142Y-84495714D01*
X172546523Y-84590952D01*
X172498904Y-84638571D01*
X172403666Y-84686190D01*
X172022714Y-84686190D01*
X173546523Y-85162380D02*
X172975095Y-85162380D01*
X173260809Y-85162380D02*
X173260809Y-84162380D01*
X173165571Y-84305238D01*
X173070333Y-84400476D01*
X172975095Y-84448095D01*
X173927476Y-84257619D02*
X173975095Y-84210000D01*
X174070333Y-84162380D01*
X174308428Y-84162380D01*
X174403666Y-84210000D01*
X174451285Y-84257619D01*
X174498904Y-84352857D01*
X174498904Y-84448095D01*
X174451285Y-84590952D01*
X173879857Y-85162380D01*
X174498904Y-85162380D01*
X131433666Y-108703761D02*
X131576523Y-108751380D01*
X131814619Y-108751380D01*
X131909857Y-108703761D01*
X131957476Y-108656142D01*
X132005095Y-108560904D01*
X132005095Y-108465666D01*
X131957476Y-108370428D01*
X131909857Y-108322809D01*
X131814619Y-108275190D01*
X131624142Y-108227571D01*
X131528904Y-108179952D01*
X131481285Y-108132333D01*
X131433666Y-108037095D01*
X131433666Y-107941857D01*
X131481285Y-107846619D01*
X131528904Y-107799000D01*
X131624142Y-107751380D01*
X131862238Y-107751380D01*
X132005095Y-107799000D01*
X132338428Y-107751380D02*
X132576523Y-108751380D01*
X132767000Y-108037095D01*
X132957476Y-108751380D01*
X133195571Y-107751380D01*
X134100333Y-108751380D02*
X133528904Y-108751380D01*
X133814619Y-108751380D02*
X133814619Y-107751380D01*
X133719380Y-107894238D01*
X133624142Y-107989476D01*
X133528904Y-108037095D01*
X131560666Y-81525761D02*
X131703523Y-81573380D01*
X131941619Y-81573380D01*
X132036857Y-81525761D01*
X132084476Y-81478142D01*
X132132095Y-81382904D01*
X132132095Y-81287666D01*
X132084476Y-81192428D01*
X132036857Y-81144809D01*
X131941619Y-81097190D01*
X131751142Y-81049571D01*
X131655904Y-81001952D01*
X131608285Y-80954333D01*
X131560666Y-80859095D01*
X131560666Y-80763857D01*
X131608285Y-80668619D01*
X131655904Y-80621000D01*
X131751142Y-80573380D01*
X131989238Y-80573380D01*
X132132095Y-80621000D01*
X132465428Y-80573380D02*
X132703523Y-81573380D01*
X132894000Y-80859095D01*
X133084476Y-81573380D01*
X133322571Y-80573380D01*
X133655904Y-80668619D02*
X133703523Y-80621000D01*
X133798761Y-80573380D01*
X134036857Y-80573380D01*
X134132095Y-80621000D01*
X134179714Y-80668619D01*
X134227333Y-80763857D01*
X134227333Y-80859095D01*
X134179714Y-81001952D01*
X133608285Y-81573380D01*
X134227333Y-81573380D01*
X147574095Y-84067380D02*
X147574095Y-84876904D01*
X147621714Y-84972142D01*
X147669333Y-85019761D01*
X147764571Y-85067380D01*
X147955047Y-85067380D01*
X148050285Y-85019761D01*
X148097904Y-84972142D01*
X148145523Y-84876904D01*
X148145523Y-84067380D01*
X149145523Y-85067380D02*
X148574095Y-85067380D01*
X148859809Y-85067380D02*
X148859809Y-84067380D01*
X148764571Y-84210238D01*
X148669333Y-84305476D01*
X148574095Y-84353095D01*
X135922380Y-63982904D02*
X136731904Y-63982904D01*
X136827142Y-63935285D01*
X136874761Y-63887666D01*
X136922380Y-63792428D01*
X136922380Y-63601952D01*
X136874761Y-63506714D01*
X136827142Y-63459095D01*
X136731904Y-63411476D01*
X135922380Y-63411476D01*
X136017619Y-62982904D02*
X135970000Y-62935285D01*
X135922380Y-62840047D01*
X135922380Y-62601952D01*
X135970000Y-62506714D01*
X136017619Y-62459095D01*
X136112857Y-62411476D01*
X136208095Y-62411476D01*
X136350952Y-62459095D01*
X136922380Y-63030523D01*
X136922380Y-62411476D01*
X128270095Y-65021380D02*
X128270095Y-65830904D01*
X128317714Y-65926142D01*
X128365333Y-65973761D01*
X128460571Y-66021380D01*
X128651047Y-66021380D01*
X128746285Y-65973761D01*
X128793904Y-65926142D01*
X128841523Y-65830904D01*
X128841523Y-65021380D01*
X129222476Y-65021380D02*
X129841523Y-65021380D01*
X129508190Y-65402333D01*
X129651047Y-65402333D01*
X129746285Y-65449952D01*
X129793904Y-65497571D01*
X129841523Y-65592809D01*
X129841523Y-65830904D01*
X129793904Y-65926142D01*
X129746285Y-65973761D01*
X129651047Y-66021380D01*
X129365333Y-66021380D01*
X129270095Y-65973761D01*
X129222476Y-65926142D01*
X131322809Y-94941190D02*
X131322809Y-95417380D01*
X130989476Y-94417380D02*
X131322809Y-94941190D01*
X131656142Y-94417380D01*
X132513285Y-95417380D02*
X131941857Y-95417380D01*
X132227571Y-95417380D02*
X132227571Y-94417380D01*
X132132333Y-94560238D01*
X132037095Y-94655476D01*
X131941857Y-94703095D01*
M02*
